<svg height="100%" version="1.1" width="100%" xmlns="http://www.w3.org/2000/svg" preserveAspectRatio="xMidYMid meet" viewBox="0 0 600 442" xmlns:xlink="http://www.w3.org/1999/xlink"><desc>Created with Snap</desc><defs/><g id="root" contentwidth="188.79999999999998" contentheight="226.39999999999998">
          <rect class="background" height="2000%" width="2000%" y="-1000%" x="-1000%" style="" fill="#ffffff"/>
          <rect class="watermarklayer" height="100%" width="100%" y="0" x="0" style="" fill="none"/>
          <g class="content" id="content" transform="matrix(1,0,0,1,4.2,28.8)">
            <g class="icon">
            <svg height="149" version="1.1" width="59" xmlns="http://www.w3.org/2000/svg" x="215" y="79" preserveAspectRatio="none" transform="matrix(1,0,0,1,0,0)"><desc>Created with Snap</desc><defs/><svg xmlns="http://www.w3.org/2000/svg" viewBox="215 79 59 149"><path d="M273.954 95.682v37.821l-57.474 94.063c-.95-2.23-1.48-4.726-1.48-7.378V97.818c0-13.724 14.2-22.817 26.656-17.062l32.298 14.926Z" id="prefix-LSD-Fill-3" fill="#00E2EE"/></svg></svg><svg height="105" version="1.1" width="57" xmlns="http://www.w3.org/2000/svg" x="216" y="134" preserveAspectRatio="none" transform="matrix(1,0,0,1,0,0)"><desc>Created with Snap</desc><defs/><svg xmlns="http://www.w3.org/2000/svg" viewBox="216 134 57 105"><path d="M273.954 133.504v88.821l-32.298 14.926c-10.04 4.632-21.216-.39-25.176-9.686l57.474-94.061Z" id="prefix-gB_-Fill-5" fill="#00CEED"/></svg></svg><svg height="118" version="1.1" width="43" xmlns="http://www.w3.org/2000/svg" x="273" y="104" preserveAspectRatio="none" transform="matrix(1,0,0,1,0,0)"><desc>Created with Snap</desc><defs/><svg xmlns="http://www.w3.org/2000/svg" viewBox="274 104 43 118"><path id="prefix-gRK-Fill-7" fill="#06BBF1" d="m317.18 168.782-29.259 46.103-.725 1.073-13.243 6.366v-88.821l18.02-29.492 2.838 1.31z"/></svg></svg><svg height="63" version="1.1" width="48" xmlns="http://www.w3.org/2000/svg" x="294" y="105" preserveAspectRatio="none" transform="matrix(1,0,0,1,0,0)"><desc>Created with Snap</desc><defs/><svg xmlns="http://www.w3.org/2000/svg" viewBox="295 105 48 63"><path id="prefix-VV1-Fill-13" fill="#2693EA" d="m343.01 128.123-25.83 40.66-22.369-63.463 47.95 22.148z"/></svg></svg><svg height="68" version="1.1" width="36" xmlns="http://www.w3.org/2000/svg" x="316" y="127" preserveAspectRatio="none" transform="matrix(1,0,0,1,0,0)"><desc>Created with Snap</desc><defs/><svg xmlns="http://www.w3.org/2000/svg" viewBox="317 128 36 68"><path id="prefix-j9Q-Fill-15" fill="#4C69E4" d="m353.33 154.886-26.516 41.221-9.634-27.324 25.83-40.66z"/></svg></svg><svg height="43" version="1.1" width="37" xmlns="http://www.w3.org/2000/svg" x="325" y="154" preserveAspectRatio="none" transform="matrix(1,0,0,1,0,0)"><desc>Created with Snap</desc><defs/><svg xmlns="http://www.w3.org/2000/svg" viewBox="327 155 37 43"><path id="prefix-m-H-Fill-17" fill="#9561E8" d="m363.4 181.01-35.931 16.594-.235-.31-.42-1.186 26.515-41.222z"/></svg></svg><svg height="44" version="1.1" width="32" xmlns="http://www.w3.org/2000/svg" x="351" y="137" preserveAspectRatio="none" transform="matrix(1,0,0,1,0,0)"><desc>Created with Snap</desc><defs/><svg xmlns="http://www.w3.org/2000/svg" viewBox="353 138 32 44"><path d="m374.093 176.066-10.693 4.945-10.07-26.125 11.177-17.375 9.586 4.43c14.544 6.722 14.544 27.403 0 34.125" id="prefix-Z2_-Fill-21" fill="#E058EB"/></svg></svg></g>
            <g id="icon_name_and_slogan_gap">
            </g>
            <g class="name_and_slogan" id="name_and_slogan_id">
              <g class="name"><g id="nameDefaultGroup"><path d="M217 282.8 L223.9 295.4 L215.9 295.4 L210.2 284.9 L208.2 284.9 L208.2 295.4 L201.4 295.4 L201.4 264.2 L208.2 264.2 L208.2 280.7 L210.3 280.7 L215.8 273.5 L224 273.5 L217 282.8 M254 295.3 L238.7 295.3 L238.7 305.4 L231.9 305.4 L231.9 273.5 L254 273.5 L254 295.3 Z M247.4 278.6 L238.7 278.6 L238.7 290.4 L247.4 290.4 L247.4 278.6 M278.6 278.3 L268.9 280.9 L268.9 295.5 L262.1 295.5 L262.1 273.6 L268.9 273.6 L268.9 275.4 L278.6 272.8 L278.6 278.3 M310.7 289 L309.3 295.5 L287 295.5 L287 273.4 L310.2 273.4 L310.2 286.4 L294.2 286.4 L294.2 291.2 L303.7 291.2 L304.3 289 L310.7 289 Z M294.2 277.8 L294.2 282 L303.2 282 L303.2 277.8 L294.2 277.8 M335.4 288.6 L333.7 295.5 L321.5 295.5 L321.5 278.3 L317.4 278.3 L317.4 273.3 L321.5 273.3 L321.5 268.6 L328.3 268.6 L328.3 273.3 L335 273.3 L335 278.3 L328.3 278.3 L328.3 290.6 L329.7 290.6 L330.3 288.6 L335.4 288.6 M360.4 288.6 L358.7 295.5 L346.5 295.5 L346.5 278.3 L342.4 278.3 L342.4 273.3 L346.5 273.3 L346.5 268.6 L353.3 268.6 L353.3 273.3 L360 273.3 L360 278.3 L353.3 278.3 L353.3 290.6 L354.7 290.6 L355.3 288.6 L360.4 288.6 M390.2 273.4 L377.9 305.4 L369.5 305.4 L369.5 300.3 L372.7 300.3 L375.4 293.2 L373 293.2 L366.9 273.4 L374.2 273.4 L378 286.1 L382.8 273.4 L390.2 273.4 " style="" fill="#0b0560" transform="matrix(1,0,0,1,0,0)"/></g></g>
              <g class="slogan"><g id="sloganDefaultGroup"/></g>
            </g>
            <g class="border">
            </g>
          </g>
          <defs id="defs">
            <mask xmlns="http://www.w3.org/2000/svg" id="mask">
                <rect id="showAll" fill="white" x="215" y="79" width="168" height="160"/>
                <rect id="hideNameBg" fill="black" x="0" y="0" width="0" height="0" stroke-width="2" stroke="black"/>
                <rect id="hideSloganBg" fill="black" x="0" y="0" width="0" height="0" stroke-width="2" stroke="black"/>
            </mask>
          
          </defs>
        </g>
        </svg>